<svg xmlns="http://www.w3.org/2000/svg" xmlns:xlink="http://www.w3.org/1999/xlink" width="170" zoomAndPan="magnify" viewBox="0 0 127.5 45.749998" height="61" preserveAspectRatio="xMidYMid meet" version="1.0"><defs><g/><clipPath id="id1"><path d="M 1.296875 3 L 36.492188 3 L 36.492188 45.5 L 1.296875 45.5 Z M 1.296875 3 " clip-rule="nonzero"/></clipPath><clipPath id="id2"><path d="M 111 16 L 126.90625 16 L 126.90625 31 L 111 31 Z M 111 16 " clip-rule="nonzero"/></clipPath></defs><path fill="#0041be" d="M 15.070312 20.554688 C 14.875 20.554688 14.679688 20.480469 14.53125 20.332031 L 8.417969 14.242188 C 8.117188 13.945312 8.117188 13.464844 8.417969 13.164062 C 8.714844 12.867188 9.199219 12.867188 9.496094 13.164062 L 15.613281 19.257812 C 15.910156 19.554688 15.910156 20.035156 15.613281 20.332031 C 15.464844 20.480469 15.269531 20.554688 15.070312 20.554688 Z M 15.070312 20.554688 " fill-opacity="1" fill-rule="nonzero"/><path fill="#0041be" d="M 8.957031 20.554688 C 8.761719 20.554688 8.566406 20.480469 8.417969 20.332031 C 8.117188 20.035156 8.117188 19.554688 8.417969 19.257812 L 14.53125 13.164062 C 14.832031 12.867188 15.3125 12.867188 15.613281 13.164062 C 15.910156 13.464844 15.910156 13.945312 15.613281 14.242188 L 9.496094 20.332031 C 9.347656 20.480469 9.152344 20.554688 8.957031 20.554688 Z M 8.957031 20.554688 " fill-opacity="1" fill-rule="nonzero"/><path fill="#0041be" d="M 28.832031 38.828125 C 28.636719 38.828125 28.441406 38.753906 28.289062 38.605469 L 25.234375 35.558594 C 24.933594 35.261719 24.933594 34.78125 25.234375 34.484375 C 25.53125 34.183594 26.015625 34.183594 26.3125 34.484375 L 29.371094 37.527344 C 29.671875 37.824219 29.671875 38.308594 29.371094 38.605469 C 29.222656 38.753906 29.027344 38.828125 28.832031 38.828125 Z M 28.832031 38.828125 " fill-opacity="1" fill-rule="nonzero"/><path fill="#0041be" d="M 25.773438 38.828125 C 25.578125 38.828125 25.382812 38.753906 25.234375 38.605469 C 24.933594 38.308594 24.933594 37.824219 25.234375 37.527344 L 28.289062 34.484375 C 28.589844 34.183594 29.074219 34.183594 29.371094 34.484375 C 29.671875 34.78125 29.671875 35.261719 29.371094 35.558594 L 26.3125 38.605469 C 26.164062 38.753906 25.96875 38.828125 25.773438 38.828125 Z M 25.773438 38.828125 " fill-opacity="1" fill-rule="nonzero"/><path fill="#0041be" d="M 12.777344 37.304688 C 11.09375 37.304688 9.722656 35.9375 9.722656 34.261719 C 9.722656 32.582031 11.09375 31.214844 12.777344 31.214844 C 14.464844 31.214844 15.835938 32.582031 15.835938 34.261719 C 15.835938 35.9375 14.464844 37.304688 12.777344 37.304688 Z M 12.777344 32.738281 C 11.9375 32.738281 11.25 33.421875 11.25 34.261719 C 11.25 35.097656 11.9375 35.78125 12.777344 35.78125 C 13.621094 35.78125 14.308594 35.097656 14.308594 34.261719 C 14.308594 33.421875 13.621094 32.738281 12.777344 32.738281 Z M 12.777344 32.738281 " fill-opacity="1" fill-rule="nonzero"/><path fill="#0041be" d="M 25.007812 31.214844 C 23.324219 31.214844 21.953125 29.847656 21.953125 28.167969 C 21.953125 26.488281 23.324219 25.125 25.007812 25.125 C 26.695312 25.125 28.066406 26.488281 28.066406 28.167969 C 28.066406 29.847656 26.695312 31.214844 25.007812 31.214844 Z M 25.007812 26.648438 C 24.164062 26.648438 23.480469 27.328125 23.480469 28.167969 C 23.480469 29.007812 24.164062 29.691406 25.007812 29.691406 C 25.851562 29.691406 26.539062 29.007812 26.539062 28.167969 C 26.539062 27.328125 25.851562 26.648438 25.007812 26.648438 Z M 25.007812 26.648438 " fill-opacity="1" fill-rule="nonzero"/><path fill="#0041be" d="M 12.777344 27.40625 C 12.355469 27.40625 12.015625 27.066406 12.015625 26.648438 C 12.015625 26.226562 12.355469 25.886719 12.777344 25.886719 C 18.679688 25.886719 23.480469 21.105469 23.480469 15.226562 C 23.480469 14.804688 23.824219 14.464844 24.246094 14.464844 C 24.667969 14.464844 25.007812 14.804688 25.007812 15.226562 C 25.007812 21.941406 19.523438 27.40625 12.777344 27.40625 Z M 12.777344 27.40625 " fill-opacity="1" fill-rule="nonzero"/><path fill="#0041be" d="M 27.300781 19.035156 C 27.105469 19.035156 26.910156 18.957031 26.761719 18.808594 L 24.246094 16.304688 L 21.726562 18.808594 C 21.429688 19.109375 20.945312 19.109375 20.648438 18.808594 C 20.347656 18.511719 20.347656 18.03125 20.648438 17.734375 L 23.703125 14.6875 C 24.003906 14.390625 24.484375 14.390625 24.785156 14.6875 L 27.84375 17.734375 C 28.140625 18.03125 28.140625 18.511719 27.84375 18.808594 C 27.695312 18.957031 27.496094 19.035156 27.300781 19.035156 Z M 27.300781 19.035156 " fill-opacity="1" fill-rule="nonzero"/><path fill="#0041be" d="M 27.300781 9.898438 L 10.484375 9.898438 C 10.0625 9.898438 9.722656 9.558594 9.722656 9.136719 L 9.722656 4.972656 C 9.722656 3.488281 10.929688 2.285156 12.417969 2.285156 L 14.375 2.285156 C 14.945312 2.285156 15.488281 2.007812 15.828125 1.546875 C 16.546875 0.578125 17.691406 0 18.894531 0 C 20.097656 0 21.242188 0.578125 21.957031 1.546875 C 22.300781 2.007812 22.84375 2.285156 23.414062 2.285156 L 25.367188 2.285156 C 26.855469 2.285156 28.066406 3.488281 28.066406 4.972656 L 28.066406 9.136719 C 28.066406 9.558594 27.722656 9.898438 27.300781 9.898438 Z M 11.25 8.375 L 26.539062 8.375 L 26.539062 4.972656 C 26.539062 4.328125 26.011719 3.808594 25.367188 3.808594 L 23.414062 3.808594 C 22.359375 3.808594 21.355469 3.300781 20.726562 2.449219 C 20.292969 1.859375 19.625 1.523438 18.894531 1.523438 C 18.164062 1.523438 17.496094 1.859375 17.0625 2.449219 C 16.433594 3.300781 15.429688 3.808594 14.375 3.808594 L 12.417969 3.808594 C 11.773438 3.808594 11.25 4.328125 11.25 4.972656 Z M 11.25 8.375 " fill-opacity="1" fill-rule="nonzero"/><g clip-path="url(#id1)"><path fill="#0041be" d="M 32.652344 45.679688 L 5.136719 45.679688 C 3.027344 45.679688 1.3125 43.972656 1.3125 41.875 L 1.3125 7.613281 C 1.3125 5.515625 3.027344 3.808594 5.136719 3.808594 L 10.484375 3.808594 C 10.90625 3.808594 11.25 4.148438 11.25 4.566406 L 11.25 8.375 L 26.539062 8.375 L 26.539062 4.566406 C 26.539062 4.148438 26.878906 3.808594 27.300781 3.808594 L 32.652344 3.808594 C 34.761719 3.808594 36.476562 5.515625 36.476562 7.613281 L 36.476562 41.875 C 36.476562 43.972656 34.761719 45.679688 32.652344 45.679688 Z M 5.136719 5.328125 C 3.871094 5.328125 2.84375 6.355469 2.84375 7.613281 L 2.84375 41.875 C 2.84375 43.132812 3.871094 44.15625 5.136719 44.15625 L 32.652344 44.15625 C 33.917969 44.15625 34.945312 43.132812 34.945312 41.875 L 34.945312 7.613281 C 34.945312 6.355469 33.917969 5.328125 32.652344 5.328125 L 28.066406 5.328125 L 28.066406 9.136719 C 28.066406 9.558594 27.722656 9.898438 27.300781 9.898438 L 10.484375 9.898438 C 10.0625 9.898438 9.722656 9.558594 9.722656 9.136719 L 9.722656 5.328125 Z M 5.136719 5.328125 " fill-opacity="1" fill-rule="nonzero"/></g><path fill="#0041be" d="M 31.125 42.632812 L 6.664062 42.632812 C 5.398438 42.632812 4.371094 41.609375 4.371094 40.351562 L 4.371094 9.136719 C 4.371094 7.875 5.398438 6.851562 6.664062 6.851562 L 10.484375 6.851562 C 10.90625 6.851562 11.25 7.191406 11.25 7.613281 L 11.25 8.375 L 26.539062 8.375 L 26.539062 7.613281 C 26.539062 7.191406 26.878906 6.851562 27.300781 6.851562 L 31.125 6.851562 C 32.386719 6.851562 33.417969 7.875 33.417969 9.136719 L 33.417969 40.351562 C 33.417969 41.609375 32.386719 42.632812 31.125 42.632812 Z M 6.664062 8.375 C 6.242188 8.375 5.898438 8.714844 5.898438 9.136719 L 5.898438 40.351562 C 5.898438 40.769531 6.242188 41.113281 6.664062 41.113281 L 31.125 41.113281 C 31.546875 41.113281 31.886719 40.769531 31.886719 40.351562 L 31.886719 9.136719 C 31.886719 8.714844 31.546875 8.375 31.125 8.375 L 28.066406 8.375 L 28.066406 9.136719 C 28.066406 9.558594 27.722656 9.898438 27.300781 9.898438 L 10.484375 9.898438 C 10.0625 9.898438 9.722656 9.558594 9.722656 9.136719 L 9.722656 8.375 Z M 6.664062 8.375 " fill-opacity="1" fill-rule="nonzero"/><path fill="#0041be" d="M 19.664062 7.613281 L 18.125 7.613281 C 17.285156 7.613281 16.601562 6.933594 16.601562 6.09375 L 16.601562 4.5625 C 16.601562 3.726562 17.285156 3.046875 18.125 3.046875 L 19.664062 3.046875 C 20.503906 3.046875 21.1875 3.726562 21.1875 4.5625 L 21.1875 6.09375 C 21.1875 6.933594 20.503906 7.613281 19.664062 7.613281 Z M 19.660156 4.5625 L 18.125 4.566406 L 18.128906 6.09375 L 19.660156 6.089844 Z M 19.660156 4.5625 " fill-opacity="1" fill-rule="nonzero"/><g fill="#0041be" fill-opacity="1"><g transform="translate(39.816787, 30.282058)"><g><path d="M 2.640625 -4.8125 C 2.640625 -3.914062 2.695312 -3.238281 2.8125 -2.78125 C 2.9375 -2.332031 3.101562 -1.957031 3.3125 -1.65625 C 3.507812 -1.363281 3.765625 -1.148438 4.078125 -1.015625 C 4.390625 -0.890625 4.738281 -0.828125 5.125 -0.828125 C 5.289062 -0.828125 5.457031 -0.832031 5.625 -0.84375 C 5.800781 -0.851562 5.972656 -0.867188 6.140625 -0.890625 C 6.222656 -0.910156 6.367188 -0.9375 6.578125 -0.96875 C 6.785156 -1.007812 7.050781 -1.0625 7.375 -1.125 L 7.375 -8.71875 C 6.582031 -8.914062 5.832031 -8.992188 5.125 -8.953125 C 3.46875 -8.867188 2.640625 -7.488281 2.640625 -4.8125 Z M 7.421875 -12.875 L 6.265625 -13.484375 L 6.265625 -13.78125 L 9.015625 -14.609375 L 9.015625 -0.859375 L 10.40625 -0.34375 L 10.40625 0 L 7.375 0 L 7.375 -0.6875 C 6.945312 -0.5 6.519531 -0.328125 6.09375 -0.171875 C 5.664062 -0.015625 5.171875 0.0625 4.609375 0.0625 C 3.960938 0.0625 3.410156 -0.03125 2.953125 -0.21875 C 2.492188 -0.414062 2.113281 -0.71875 1.8125 -1.125 C 1.507812 -1.539062 1.285156 -2.082031 1.140625 -2.75 C 1.003906 -3.414062 0.9375 -4.21875 0.9375 -5.15625 C 0.9375 -5.882812 1.015625 -6.539062 1.171875 -7.125 C 1.335938 -7.71875 1.585938 -8.21875 1.921875 -8.625 C 2.265625 -9.039062 2.6875 -9.359375 3.1875 -9.578125 C 3.695312 -9.804688 4.296875 -9.921875 4.984375 -9.921875 C 5.484375 -9.921875 5.9375 -9.875 6.34375 -9.78125 C 6.75 -9.6875 7.109375 -9.5625 7.421875 -9.40625 Z M 7.421875 -12.875 "/></g></g></g><g fill="#0041be" fill-opacity="1"><g transform="translate(50.567347, 30.282058)"><g><path d="M 7.421875 -5.5 C 5.054688 -4.9375 3.734375 -4.441406 3.453125 -4.015625 C 3.179688 -3.609375 3.046875 -3.179688 3.046875 -2.734375 C 3.046875 -1.546875 3.566406 -0.953125 4.609375 -0.953125 C 5.066406 -0.953125 5.484375 -1.007812 5.859375 -1.125 L 7.421875 -1.578125 Z M 9.125 -0.875 L 10.40625 -0.28125 L 10.40625 0 L 7.421875 0 L 7.421875 -0.984375 C 6.679688 -0.640625 6.175781 -0.394531 5.90625 -0.25 C 5.65625 -0.125 5.359375 -0.0195312 5.015625 0.0625 C 4.679688 0.144531 4.3125 0.1875 3.90625 0.1875 C 3.144531 0.1875 2.578125 0.03125 2.203125 -0.28125 C 1.828125 -0.601562 1.5625 -1.054688 1.40625 -1.640625 C 1.3125 -2.015625 1.265625 -2.347656 1.265625 -2.640625 C 1.265625 -2.929688 1.316406 -3.242188 1.421875 -3.578125 C 1.554688 -3.921875 1.722656 -4.203125 1.921875 -4.421875 C 2.117188 -4.640625 2.335938 -4.816406 2.578125 -4.953125 C 2.835938 -5.109375 3.125 -5.210938 3.4375 -5.265625 C 3.59375 -5.304688 4 -5.394531 4.65625 -5.53125 C 5.320312 -5.664062 6.242188 -5.847656 7.421875 -6.078125 L 7.421875 -7.265625 C 7.421875 -7.566406 7.40625 -7.835938 7.375 -8.078125 C 7.351562 -8.328125 7.265625 -8.539062 7.109375 -8.71875 C 6.953125 -8.894531 6.710938 -9.023438 6.390625 -9.109375 C 6.066406 -9.203125 5.625 -9.242188 5.0625 -9.234375 C 4.414062 -9.234375 3.898438 -9.179688 3.515625 -9.078125 L 2.53125 -7.3125 L 1.96875 -7.3125 L 2.265625 -9.421875 C 2.660156 -9.535156 3.097656 -9.628906 3.578125 -9.703125 C 4.066406 -9.785156 4.609375 -9.828125 5.203125 -9.828125 C 5.929688 -9.828125 6.546875 -9.785156 7.046875 -9.703125 C 7.554688 -9.617188 7.960938 -9.476562 8.265625 -9.28125 C 8.566406 -9.082031 8.785156 -8.8125 8.921875 -8.46875 C 9.054688 -8.125 9.125 -7.695312 9.125 -7.1875 Z M 9.125 -0.875 "/></g></g></g><g fill="#0041be" fill-opacity="1"><g transform="translate(61.573872, 30.282058)"><g><path d="M 3.90625 -2.203125 C 3.90625 -1.472656 4.273438 -0.988281 5.015625 -0.75 L 6.328125 -0.3125 L 6.328125 0 C 5.429688 0 4.71875 -0.0234375 4.1875 -0.078125 C 3.664062 -0.140625 3.28125 -0.253906 3.03125 -0.421875 C 2.757812 -0.609375 2.550781 -0.875 2.40625 -1.21875 C 2.332031 -1.40625 2.285156 -1.691406 2.265625 -2.078125 C 2.242188 -2.472656 2.234375 -2.988281 2.234375 -3.625 L 2.234375 -8.6875 L 1.09375 -8.6875 L 2.0625 -9.65625 L 3.203125 -11.875 L 3.875 -11.875 L 3.875 -9.65625 L 6.53125 -9.65625 L 5.734375 -8.6875 L 3.90625 -8.6875 Z M 3.90625 -2.203125 "/></g></g></g><g fill="#0041be" fill-opacity="1"><g transform="translate(68.207647, 30.282058)"><g><path d="M 7.421875 -5.5 C 5.054688 -4.9375 3.734375 -4.441406 3.453125 -4.015625 C 3.179688 -3.609375 3.046875 -3.179688 3.046875 -2.734375 C 3.046875 -1.546875 3.566406 -0.953125 4.609375 -0.953125 C 5.066406 -0.953125 5.484375 -1.007812 5.859375 -1.125 L 7.421875 -1.578125 Z M 9.125 -0.875 L 10.40625 -0.28125 L 10.40625 0 L 7.421875 0 L 7.421875 -0.984375 C 6.679688 -0.640625 6.175781 -0.394531 5.90625 -0.25 C 5.65625 -0.125 5.359375 -0.0195312 5.015625 0.0625 C 4.679688 0.144531 4.3125 0.1875 3.90625 0.1875 C 3.144531 0.1875 2.578125 0.03125 2.203125 -0.28125 C 1.828125 -0.601562 1.5625 -1.054688 1.40625 -1.640625 C 1.3125 -2.015625 1.265625 -2.347656 1.265625 -2.640625 C 1.265625 -2.929688 1.316406 -3.242188 1.421875 -3.578125 C 1.554688 -3.921875 1.722656 -4.203125 1.921875 -4.421875 C 2.117188 -4.640625 2.335938 -4.816406 2.578125 -4.953125 C 2.835938 -5.109375 3.125 -5.210938 3.4375 -5.265625 C 3.59375 -5.304688 4 -5.394531 4.65625 -5.53125 C 5.320312 -5.664062 6.242188 -5.847656 7.421875 -6.078125 L 7.421875 -7.265625 C 7.421875 -7.566406 7.40625 -7.835938 7.375 -8.078125 C 7.351562 -8.328125 7.265625 -8.539062 7.109375 -8.71875 C 6.953125 -8.894531 6.710938 -9.023438 6.390625 -9.109375 C 6.066406 -9.203125 5.625 -9.242188 5.0625 -9.234375 C 4.414062 -9.234375 3.898438 -9.179688 3.515625 -9.078125 L 2.53125 -7.3125 L 1.96875 -7.3125 L 2.265625 -9.421875 C 2.660156 -9.535156 3.097656 -9.628906 3.578125 -9.703125 C 4.066406 -9.785156 4.609375 -9.828125 5.203125 -9.828125 C 5.929688 -9.828125 6.546875 -9.785156 7.046875 -9.703125 C 7.554688 -9.617188 7.960938 -9.476562 8.265625 -9.28125 C 8.566406 -9.082031 8.785156 -8.8125 8.921875 -8.46875 C 9.054688 -8.125 9.125 -7.695312 9.125 -7.1875 Z M 9.125 -0.875 "/></g></g></g><g fill="#0041be" fill-opacity="1"><g transform="translate(79.214172, 30.282058)"><g><path d="M 4.671875 -0.953125 L 6.40625 -0.34375 L 6.40625 0.015625 L 1.359375 0.015625 L 1.359375 -0.34375 L 2.734375 -0.953125 L 2.734375 -12.71875 L 1.53125 -13.328125 L 1.53125 -13.625 L 11.46875 -13.625 L 11.921875 -10.90625 L 11.515625 -10.90625 L 10.1875 -12.90625 L 4.671875 -12.90625 L 4.671875 -6.96875 L 9.796875 -6.96875 L 9.1875 -6.140625 L 4.671875 -6.140625 Z M 4.671875 -0.953125 "/></g></g></g><g fill="#0041be" fill-opacity="1"><g transform="translate(91.329882, 30.282058)"><g><path d="M 4.890625 -0.953125 L 6.265625 -0.25 L 6.265625 0.015625 L 1.765625 0 L 1.765625 -0.234375 L 3.171875 -0.984375 L 3.171875 -12.671875 L 1.75 -13.328125 L 1.75 -13.625 L 6.265625 -13.625 L 6.265625 -13.328125 L 4.890625 -12.671875 Z M 4.890625 -0.953125 "/></g></g></g><g fill="#0041be" fill-opacity="1"><g transform="translate(98.582243, 30.282058)"><g><path d="M 4.671875 -0.953125 L 6.40625 -0.34375 L 6.40625 0.015625 L 1.359375 0.015625 L 1.359375 -0.34375 L 2.734375 -0.953125 L 2.734375 -12.71875 L 1.53125 -13.328125 L 1.53125 -13.625 L 11.46875 -13.625 L 11.921875 -10.90625 L 11.515625 -10.90625 L 10.1875 -12.90625 L 4.671875 -12.90625 L 4.671875 -6.96875 L 9.796875 -6.96875 L 9.1875 -6.140625 L 4.671875 -6.140625 Z M 4.671875 -0.953125 "/></g></g></g><g clip-path="url(#id2)"><g fill="#0041be" fill-opacity="1"><g transform="translate(110.697953, 30.282058)"><g><path d="M 9.921875 -5.796875 L 7.484375 -11.703125 L 4.953125 -5.796875 Z M 4.453125 0.015625 L 0.53125 0.015625 L 0.53125 -0.25 L 1.984375 -0.9375 L 7.03125 -12.75 L 6.671875 -13.625 L 8.6875 -13.625 L 13.921875 -0.890625 L 15.46875 -0.28125 L 15.46875 0.015625 L 10.234375 0.015625 L 10.234375 -0.28125 L 11.921875 -0.890625 L 10.1875 -5.015625 L 4.625 -5.015625 L 2.9375 -0.921875 L 4.453125 -0.296875 Z M 4.453125 0.015625 "/></g></g></g></g></svg>